<svg width="133" height="45" viewBox="0 0 133 45" fill="none" xmlns="http://www.w3.org/2000/svg">
<path d="M9.462 7.88V23.88H15.158C17.5047 21.96 18.678 19.144 18.678 15.432C18.678 13.8533 18.358 12.36 17.718 10.952C17.1207 9.544 16.3953 8.52 15.542 7.88H9.462ZM0.822 45V0.199997H18.166C21.0673 1.48 23.35 3.44267 25.014 6.088C26.7207 8.73333 27.574 11.8267 27.574 15.368C27.574 18.8667 26.6993 22.1093 24.95 25.096C23.2007 28.0827 20.6193 30.1947 17.206 31.432H9.462V45H0.822ZM32.2595 45V0.199997H55.2355V7.88H41.0275V18.568H53.6995V25.992H41.0275V37.576H55.4915V45H32.2595ZM67.679 7.88H58.015V0.199997H86.047V7.88H76.383V45H67.679V7.88ZM89.7595 45V0.199997H98.5275V45H89.7595ZM113.401 37.576H119.161C120.356 36.0827 121.294 33.9067 121.977 31.048C122.702 28.1893 123.065 25.352 123.065 22.536C123.065 15.8373 121.806 10.952 119.289 7.88H113.401V37.576ZM104.697 45V0.199997H123.257C129.316 5.576 132.345 12.872 132.345 22.088C132.345 31.2613 129.508 38.8987 123.833 45H104.697Z" fill="#232233"/>
</svg>
